<svg version="1.1" id="Layer_1" xmlns="http://www.w3.org/2000/svg" xmlns:xlink="http://www.w3.org/1999/xlink" x="0px" y="0px"
	 width="100%" viewBox="0 0 512 512" enable-background="new 0 0 512 512" xml:space="preserve">
<path fill="#FFFFFF" opacity="1.000000" stroke="none" 
	d="
M12.014148,512.571289 
	C8.335880,513.000000 3.251898,514.428894 1.408236,512.596863 
	C-0.423781,510.776398 1.000327,505.676849 1.000319,502.015289 
	C0.999952,336.630249 1.015239,171.245193 0.904958,5.860230 
	C0.902414,2.044573 1.333634,0.836784 5.634174,0.867227 
	C39.442295,1.106549 73.252869,1.000000 107.531342,1.000000 
	C108.359329,2.896581 106.857964,3.779513 105.697807,4.488692 
	C98.249725,9.041534 98.368454,21.566002 104.660065,27.356174 
	C108.107910,30.529236 110.866867,34.324692 113.336159,38.286812 
	C121.631851,51.597717 119.337845,64.767929 107.196106,74.731506 
	C100.871346,79.921638 95.085983,85.666466 90.337776,92.374779 
	C78.197990,109.525963 78.127197,133.714569 90.022896,152.766754 
	C93.843361,158.885620 98.341835,164.381561 103.597931,169.316299 
	C109.608910,174.959763 118.133400,175.361115 123.843353,170.095901 
	C129.368393,165.001205 129.813751,156.551834 124.631401,150.226227 
	C121.892471,146.883072 118.850624,143.792587 116.335793,140.250549 
	C105.952202,125.625648 107.927483,111.538208 121.836655,100.232193 
	C129.110535,94.319633 135.809219,87.761101 140.274429,79.418999 
	C151.665527,58.137680 147.968750,37.963398 135.150955,18.697676 
	C130.908279,12.320729 125.617958,6.803237 119.930481,1.374368 
	C147.687561,1.000000 175.375122,1.000000 203.531342,1.000000 
	C204.352692,2.744769 202.851974,3.211971 201.882996,4.009150 
	C194.048904,10.454185 193.290085,19.034138 200.056274,26.637194 
	C204.500473,31.631063 208.713104,36.718796 211.371292,42.965618 
	C216.040909,53.939301 214.402985,62.613853 206.096481,71.256256 
	C200.906006,76.656616 195.106537,81.432037 190.196930,87.118217 
	C174.398727,105.415321 172.193222,129.295410 184.347916,150.276505 
	C187.448105,155.627975 190.975952,160.654556 194.933884,165.390518 
	C196.972244,167.829529 199.211121,170.060593 201.982590,171.675842 
	C207.808319,175.071182 215.031967,174.361908 219.587555,169.970184 
	C224.299347,165.427887 225.157257,158.058167 221.679901,152.007233 
	C220.506729,149.965775 218.905609,148.275162 217.293350,146.586121 
	C214.057114,143.195709 211.302444,139.468185 209.194046,135.255020 
	C203.242218,123.361633 204.724213,113.486992 213.944199,103.754417 
	C218.866562,98.558426 224.943939,94.593697 229.448364,88.939980 
	C246.890121,67.047928 247.208939,41.401314 230.364899,17.921488 
	C225.960281,11.781660 220.459564,6.750827 214.946854,1.376713 
	C243.020889,1.000000 271.041779,1.000000 299.531342,1.000000 
	C300.315155,2.983716 298.554382,3.412589 297.467224,4.289476 
	C289.816864,10.460155 289.098145,19.092352 295.770294,26.420488 
	C299.264648,30.258432 302.267578,34.446365 305.031647,38.809635 
	C312.283752,50.257698 310.975311,61.788506 301.718353,71.647934 
	C296.252228,77.469803 289.527679,81.917816 284.673981,88.444435 
	C269.394348,108.990379 268.139038,130.821640 281.450928,152.777405 
	C285.263306,159.065262 289.673187,164.908737 295.196106,169.838669 
	C301.238617,175.232361 310.167511,175.301895 315.604401,169.987091 
	C320.948242,164.763229 320.994415,156.406601 315.804565,150.126129 
	C311.779724,145.255524 307.426575,140.618134 304.582916,134.873718 
	C298.766602,123.124321 300.319946,113.901855 309.304504,104.319756 
	C314.315369,98.975655 320.164520,94.547089 324.939178,88.924873 
	C341.459290,69.472244 342.415253,47.440060 330.607452,25.286663 
	C325.679321,16.040676 318.812744,8.450977 310.935242,1.374037 
	C376.964752,1.000000 442.929504,1.026161 508.894104,0.920269 
	C512.084961,0.915147 513.109497,1.247684 513.106812,4.890026 
	C512.983887,172.966751 512.983643,341.043610 513.107910,509.120331 
	C513.110596,512.783936 512.054016,513.092407 508.883545,513.080078 
	C475.568512,512.950500 442.252838,513.000000 408.468658,513.000000 
	C407.855316,510.686523 409.982758,510.142578 411.213257,508.919250 
	C415.130035,505.025269 417.145203,500.465607 415.880493,494.915497 
	C414.568726,489.158844 410.826721,485.733704 405.141083,484.284149 
	C402.197937,483.533752 399.220459,483.425293 396.215698,483.425873 
	C374.390320,483.430054 352.564911,483.456024 330.739685,483.394836 
	C328.169983,483.387634 324.373260,484.367371 323.491730,481.730774 
	C322.566193,478.962555 326.335327,477.777466 328.414734,476.381317 
	C355.013336,458.521851 376.637543,435.998871 392.003204,407.809052 
	C395.395050,401.586426 399.442230,399.257507 406.576019,399.373291 
	C420.032104,399.591675 433.570251,400.707611 446.981445,398.522980 
	C480.504456,393.062286 505.841248,367.665558 510.096741,333.923950 
	C516.428040,283.723114 476.706512,247.862442 436.272186,248.421509 
	C432.441010,248.474487 428.608154,248.458984 424.776550,248.418823 
	C417.429474,248.341782 416.713501,247.636230 416.575439,240.487396 
	C416.562561,239.821152 416.575043,239.154388 416.555695,238.488266 
	C416.230530,227.298340 411.305206,222.438904 400.143097,222.436432 
	C330.501862,222.420975 260.860626,222.429138 191.219391,222.428955 
	C134.240204,222.428818 77.261002,222.425766 20.281811,222.435547 
	C16.958946,222.436111 13.533490,222.117386 10.517186,223.892075 
	C6.030071,226.532166 3.484173,230.457550 3.472738,235.761475 
	C3.405924,266.749817 2.210032,297.797638 3.770755,328.711823 
	C5.794815,368.803680 20.737566,404.488892 46.218410,435.594788 
	C59.494690,451.801910 74.807297,465.813812 92.385704,477.286835 
	C93.223495,477.833618 94.059280,478.389008 94.752510,479.116974 
	C96.848564,481.318085 96.091003,482.596497 93.385880,483.154846 
	C91.579094,483.527802 89.734863,483.423615 87.903992,483.424347 
	C66.245232,483.432861 44.586479,483.428223 22.927721,483.428558 
	C20.092937,483.428589 17.268469,483.459717 14.487124,484.154358 
	C9.223712,485.468903 5.443582,488.517578 4.015612,493.810181 
	C2.518249,499.360077 3.697561,504.362854 8.045818,508.423889 
	C9.372921,509.663391 11.070765,510.509308 12.014148,512.571289 
z"/>
<path fill="#000000" opacity="1.000000" stroke="none" 
	d="
M12.468657,513.000000 
	C6.895024,510.203552 2.804234,506.570129 2.013466,500.392578 
	C1.160002,493.725189 3.287251,488.190918 9.033270,484.558044 
	C12.197599,482.557404 15.938739,481.982422 19.736061,481.986664 
	C43.401104,482.013184 67.066193,482.000000 90.731270,482.000000 
	C92.328773,482.000000 93.926277,482.000000 96.900291,482.000000 
	C89.685112,477.191132 83.647964,473.032349 77.864296,468.505127 
	C66.613350,459.698395 56.621010,449.727173 47.280212,438.928375 
	C35.540344,425.355988 26.192257,410.355591 18.671331,394.169586 
	C12.146308,380.126831 7.987597,365.357452 4.875627,350.169769 
	C1.083993,331.665009 2.166912,313.030334 2.031971,294.413910 
	C1.889435,274.749603 1.991155,255.083466 2.004219,235.418121 
	C2.009682,227.193817 8.213922,221.004196 16.462841,221.003845 
	C145.454163,220.998367 274.445496,221.025925 403.436768,220.945496 
	C412.683136,220.939728 416.795898,228.085190 417.992920,235.530807 
	C418.045166,235.855743 417.994385,236.196472 418.000732,236.529663 
	C418.199493,247.000000 418.209320,247.283737 428.537048,246.932755 
	C443.602997,246.420715 458.004791,248.359055 471.432495,255.796112 
	C493.530426,268.035278 506.918457,286.317719 511.026764,311.360962 
	C514.242065,330.960571 510.809357,349.230103 499.957672,365.838989 
	C488.469482,383.422058 472.249329,394.321594 451.715057,399.063293 
	C436.791626,402.509338 421.711090,400.942108 406.737701,400.716400 
	C399.637604,400.609375 395.954376,402.908051 392.946320,408.812439 
	C383.269592,427.806610 369.598358,443.808685 354.122192,458.220947 
	C344.759003,466.940338 334.364044,474.477478 323.399292,481.346680 
	C324.264526,482.765167 325.717163,481.950500 326.821533,481.953278 
	C351.153076,482.014404 375.485596,481.894958 399.815948,482.075745 
	C405.716797,482.119568 411.406738,483.407043 415.030243,489.032288 
	C420.745789,497.905396 417.857544,507.908569 408.091858,512.653442 
	C276.312439,513.000000 144.624878,513.000000 12.468657,513.000000 
z"/>
<path fill="#000000" opacity="1.000000" stroke="none" 
	d="
M214.541931,1.000000 
	C223.005203,5.787832 228.929016,12.777694 233.669205,20.494249 
	C240.327347,31.333023 244.698349,43.037437 244.068695,56.218163 
	C243.515701,67.794029 238.966324,77.652473 232.578354,86.995956 
	C227.939636,93.780891 221.164490,98.312042 215.492264,103.998596 
	C203.575516,115.945473 204.876144,127.502983 213.624283,140.222031 
	C216.775162,144.803146 221.762650,147.904221 223.957581,153.150299 
	C226.846130,160.054153 224.553650,168.558517 218.949524,172.566132 
	C213.482590,176.475632 203.973038,176.189026 198.677628,170.983124 
	C186.670761,159.179169 178.120636,145.472092 175.911621,128.222305 
	C173.733826,111.216438 179.349854,97.133278 190.651886,84.920654 
	C195.311935,79.885117 200.328934,75.180176 205.177307,70.318619 
	C213.149628,62.324612 215.122940,53.419708 209.917358,42.546623 
	C206.762573,35.957115 201.561829,31.004211 197.239349,25.330683 
	C190.897079,17.006067 194.247391,6.044236 203.908142,1.346510 
	C207.361282,1.000000 210.722580,1.000000 214.541931,1.000000 
z"/>
<path fill="#000000" opacity="1.000000" stroke="none" 
	d="
M310.541931,1.000000 
	C326.628815,12.160419 335.624939,27.407234 339.018982,46.181385 
	C342.046021,62.925629 336.375305,76.883545 325.967163,89.664810 
	C320.152527,96.805222 312.455597,101.943924 306.831665,109.336594 
	C298.927734,119.726410 302.796753,130.761581 308.332123,138.728180 
	C311.207642,142.866669 314.795502,146.503067 317.921417,150.476517 
	C322.089233,155.774292 322.043793,161.512100 319.130646,167.321579 
	C316.567474,172.433197 312.328094,174.534836 306.590454,175.127151 
	C297.195038,176.097061 292.263519,169.612762 287.584167,163.804581 
	C279.571991,153.859543 273.832092,142.703445 271.751190,129.640045 
	C270.143951,119.550156 271.518463,110.189919 275.476868,101.201408 
	C279.701691,91.607849 286.088074,83.599335 294.376007,76.840019 
	C301.129608,71.332062 307.910736,65.257065 308.312988,55.312756 
	C308.544098,49.599525 307.305267,44.346554 304.080322,39.602436 
	C300.786926,34.757557 297.453003,29.987196 293.328247,25.736506 
	C286.858337,19.069021 289.548370,4.857257 299.908813,1.345825 
	C303.361298,1.000000 306.722565,1.000000 310.541931,1.000000 
z"/>
<path fill="#000000" opacity="1.000000" stroke="none" 
	d="
M119.539368,1.000000 
	C134.996323,11.965608 144.350616,26.943478 147.616348,44.837509 
	C150.282028,59.443737 147.153244,73.684608 137.644882,85.874847 
	C132.867706,91.999451 127.116943,97.084625 121.393547,102.303741 
	C108.416771,114.137154 107.487228,125.476700 118.045624,140.518326 
	C120.223366,143.620773 123.045807,146.183807 125.469238,149.060806 
	C133.211761,158.252487 130.023666,170.885834 119.092674,174.281601 
	C113.296150,176.082336 107.930656,175.337875 102.914162,170.647842 
	C91.005661,159.514328 82.946213,146.161392 80.353447,130.276978 
	C78.035034,116.073372 81.028282,102.370033 89.990936,90.588692 
	C94.980988,84.029282 101.127502,78.592979 107.222305,73.027336 
	C119.059967,62.217442 120.857170,50.956871 109.990967,35.566521 
	C108.204926,33.036861 106.114456,30.685686 103.939377,28.473562 
	C95.225632,19.611401 96.864876,8.047162 107.910667,1.344052 
	C111.692909,1.000000 115.385818,1.000000 119.539368,1.000000 
z"/>
<path fill="#FFFFFF" opacity="1.000000" stroke="none" 
	d="
M225.000000,252.000000 
	C277.652191,252.000000 329.804504,252.052353 381.956238,251.898605 
	C386.039917,251.886566 387.175995,252.735992 387.115417,256.968018 
	C386.848267,275.625702 387.329315,294.296600 386.918640,312.949036 
	C386.375885,337.599945 381.991211,361.534943 370.973236,383.848724 
	C362.419739,401.171509 351.198883,416.533905 337.448914,430.251953 
	C324.020844,443.648895 308.879211,454.481354 292.066223,462.885712 
	C274.289032,471.772064 255.467911,477.337036 235.647186,480.272980 
	C221.915421,482.307007 208.194000,482.778534 194.650665,481.706360 
	C173.082230,479.998840 152.255814,474.491180 132.435471,465.218536 
	C110.773262,455.084198 91.741440,441.499786 75.612656,423.975983 
	C67.065948,414.690002 59.888443,404.321381 53.580975,393.289032 
	C45.615154,379.356049 39.966858,364.604523 36.616753,349.020874 
	C34.811325,340.622620 33.343147,331.992218 33.160423,323.435852 
	C32.683842,301.118866 33.109055,278.783966 32.895397,256.458862 
	C32.858692,252.623718 33.916660,251.906296 37.552418,251.913345 
	C99.868095,252.033966 162.184082,252.000000 225.000000,252.000000 
z"/>
<path fill="#FFFFFF" opacity="1.000000" stroke="none" 
	d="
M417.000000,329.079803 
	C418.974854,312.891479 417.578888,297.104980 418.015594,281.357513 
	C418.056671,279.875793 417.253235,277.878387 420.155609,277.973694 
	C429.980988,278.296295 440.031647,276.650055 449.506134,280.262482 
	C465.610260,286.402710 476.249023,297.630188 479.991821,314.783569 
	C485.301605,339.118225 468.789246,363.871155 443.865448,368.871857 
	C432.793945,371.093201 421.439056,369.828339 410.012939,370.042633 
	C413.420258,356.464600 416.650726,343.252838 417.000000,329.079803 
z"/>
</svg>